<?xml version="1.0" encoding="UTF-8" standalone="no" ?>
<!DOCTYPE svg PUBLIC "-//W3C//DTD SVG 1.1//EN" "http://www.w3.org/Graphics/SVG/1.1/DTD/svg11.dtd">
<svg xmlns="http://www.w3.org/2000/svg" xmlns:xlink="http://www.w3.org/1999/xlink" version="1.1" width="1366" height="768" viewBox="0 0 1366 768" xml:space="preserve">
<desc>Created with Fabric.js 4.6.0</desc>
<defs>
</defs>
<g transform="matrix(2.72 2.72 2.72 -2.72 786.06 384)" id="MN9WfyiE6fbmtN01WVamY"  >
<radialGradient id="SVGID_124" gradientUnits="userSpaceOnUse" gradientTransform="matrix(1 0 0 1 -55.44 -55.44)"  cx="55.43831168831173" cy="55.43831168831175" r="55.43831168831173" fx="55.43831168831173" fy="55.43831168831175">
<stop offset="0%" style="stop-color:#FEF107;stop-opacity: 1"/>
<stop offset="60.93749695461179%" style="stop-color:#FFF312;stop-opacity: 1"/>
<stop offset="100%" style="stop-color:#D6CC0C;stop-opacity: 1"/>
</radialGradient>
<filter id="SVGID_142" y="-55%" height="210%" x="-55%" width="210%" >
	<feGaussianBlur in="SourceAlpha" stdDeviation="10"></feGaussianBlur>
	<feOffset dx="18.38" dy="-18.38" result="oBlur" ></feOffset>
	<feFlood flood-color="rgb(201,199,199)" flood-opacity="1"/>
	<feComposite in2="oBlur" operator="in" />
	<feMerge>
		<feMergeNode></feMergeNode>
		<feMergeNode in="SourceGraphic"></feMergeNode>
	</feMerge>
</filter>
<path style="stroke: rgb(110,221,7); stroke-width: 0; stroke-dasharray: none; stroke-linecap: butt; stroke-dashoffset: 0; stroke-linejoin: miter; stroke-miterlimit: 4; fill: url(#SVGID_124); fill-rule: nonzero; opacity: 1;filter: url(#SVGID_142);" vector-effect="non-scaling-stroke"  transform=" translate(0, 0)" d="M -55.43831 -31.91783 C -55.43831 -44.90783 -44.907830000000004 -55.43831 -31.917830000000002 -55.43831 L 31.917829999999995 -55.43831 L 31.917829999999995 -55.43831 C 44.90783 -55.43831 55.438309999999994 -44.907830000000004 55.438309999999994 -31.917830000000002 L 55.438309999999994 31.917829999999995 L 55.438309999999994 31.917829999999995 C 55.438309999999994 44.90783 44.90782999999999 55.438309999999994 31.917829999999995 55.438309999999994 L -31.917830000000002 55.438309999999994 L -31.917830000000002 55.438309999999994 C -44.907830000000004 55.438309999999994 -55.43831 44.90782999999999 -55.43831 31.917829999999995 z" stroke-linecap="round" />
</g>
<g transform="matrix(1 0 0 1 786.06 291.82)" style="" id="8g3dwIhx8U_otVFcYX0DX"  >
		<text xml:space="preserve" font-family="Open Sans" font-size="77" font-style="normal" font-weight="700" letter-spacing="0.154" line-height="1" style="stroke: none; stroke-width: 1; stroke-dasharray: none; stroke-linecap: butt; stroke-dashoffset: 0; stroke-linejoin: miter; stroke-miterlimit: 4; fill: rgb(0,0,0); fill-rule: nonzero; opacity: 1; white-space: pre;" ><tspan x="-119.31" y="30.9" >U</tspan><tspan x="-60.95" y="30.9" >n</tspan><tspan x="-10.19" y="30.9" >d</tspan><tspan x="38.69" y="30.9" >e</tspan><tspan x="84.34" y="30.9" >r</tspan></text>
</g>
<g transform="matrix(1 0 0 1 778.08 518.44)" id="Q48SqdOlYEDTvzRJx2K9V"  >
<path style="stroke: none; stroke-width: 1; stroke-dasharray: none; stroke-linecap: butt; stroke-dashoffset: 0; stroke-linejoin: miter; stroke-miterlimit: 4; fill: rgb(0,0,0); fill-rule: nonzero; opacity: 1;" vector-effect="non-scaling-stroke"  transform=" translate(-51.99, -51.99)" d="M 44.7096 81.6296 C 43.5396 82.7996 41.589600000000004 82.9296 40.5496 81.75959999999999 L 39.2496 80.4596 C 39.2496 80.58959999999999 38.339600000000004 81.75959999999999 37.8196 82.14959999999999 L 19.2296 100.7396 C 16.6296 103.33959999999999 12.599600000000002 103.4696 10.2596 100.9996 L 2.9796000000000005 93.7196 C 0.6396000000000006 91.3796 0.7696000000000005 87.3496 3.2396000000000003 84.7496 L 21.6996 66.28960000000001 C 22.2196 65.76960000000001 23.3896 64.98960000000001 23.3896 64.8596 L 22.0896 63.5596 C 20.919600000000003 62.3896 21.0496 60.5696 22.2196 59.39960000000001 C 23.3896 58.229600000000005 25.3396 58.229600000000005 26.3796 59.269600000000004 L 33.3996 66.28960000000001 L 44.12952 55.46849000000001 C 30.970579999999998 42.33131000000001 21.8296 37.55960000000001 21.8296 37.55960000000001 C 21.8296 37.55960000000001 8.5696 40.15960000000001 3.3695999999999984 30.53960000000001 C -1.3104000000000013 21.95960000000001 0.24959999999999827 11.16960000000001 0.24959999999999827 11.16960000000001 L 11.819599999999998 26.37960000000001 L 23.6496 23.64960000000001 L 26.3796 11.81960000000001 L 11.169599999999999 0.24960000000000981 C 11.169599999999999 0.24960000000000981 21.9596 -1.3103999999999902 30.5396 3.36960000000001 C 40.1596 8.56960000000001 37.5596 21.82960000000001 37.5596 21.82960000000001 C 37.5596 21.82960000000001 42.461380000000005 31.23876000000001 55.306470000000004 44.19655000000001 L 79.28960000000001 20.00960000000001 L 81.7596 12.85960000000001 L 98.78960000000001 1.15960000000001 L 102.68960000000001 5.05960000000001 L 90.98960000000001 22.08960000000001 L 83.96960000000001 24.689600000000013 L 59.81522000000001 48.572580000000016 C 65.80252000000002 54.16826000000002 73.17769000000001 60.251410000000014 82.1496 66.41960000000002 C 86.56960000000001 69.53960000000002 95.40960000000001 63.819600000000015 100.6096 73.43960000000001 C 105.28960000000001 82.01960000000001 103.7296 92.80960000000002 103.7296 92.80960000000002 L 92.15960000000001 77.59960000000001 L 80.32960000000001 80.32960000000001 L 77.59960000000001 92.15960000000001 L 92.80960000000002 103.7296 C 92.80960000000002 103.7296 82.01960000000003 105.28960000000001 73.43960000000001 100.6096 C 63.819600000000015 95.4096 69.01960000000001 86.8296 66.41960000000002 82.14959999999999 C 60.07134000000002 73.17924 53.95200000000002 65.82957999999999 48.38720000000002 59.87218999999999 L 37.68960000000002 70.44959999999999 L 44.70960000000002 77.46959999999999 C 45.879600000000025 78.63959999999999 45.879600000000025 80.45959999999998 44.70960000000002 81.62959999999998 z" stroke-linecap="round" />
</g>
<g transform="matrix(1 0 0 1 786.06 361.52)" style="" id="e592no2ZeUenMxxL9ViUA"  >
		<text xml:space="preserve" font-family="Open Sans" font-size="45" font-style="normal" font-weight="600" letter-spacing="0.09" line-height="1" style="stroke: none; stroke-width: 1; stroke-dasharray: none; stroke-linecap: butt; stroke-dashoffset: 0; stroke-linejoin: miter; stroke-miterlimit: 4; fill: rgb(0,0,0); fill-rule: nonzero; opacity: 1; white-space: pre;" ><tspan x="-141.01" y="17.58" >C</tspan><tspan x="-112.4" y="17.58" >o</tspan><tspan x="-84.84" y="17.58" >n</tspan><tspan x="-56.17" y="17.58" >s</tspan><tspan x="-34.17" y="17.58" >t</tspan><tspan x="-16.28" y="17.58" >r</tspan><tspan x="3.23" y="17.58" >u</tspan><tspan x="31.91" y="17.58" >c</tspan><tspan x="54.34" y="17.58" >t</tspan><tspan x="72.23" y="17.58" >i</tspan><tspan x="84.87" y="17.58" >o</tspan><tspan x="112.42" y="17.58" >n</tspan></text>
</g>
</svg>